<svg width="28" height="22" viewBox="0 0 28 22" fill="none" xmlns="http://www.w3.org/2000/svg">
<path d="M26.59 6.78003H24.348C24.2242 6.78156 24.1054 6.82936 24.015 6.91403C23.299 5.77103 22.558 4.85603 21.983 4.28103C21.408 3.70703 20.003 3.29803 18.251 3.05303V1.03003C16.711 0.832029 15.153 0.780029 13.984 0.780029C12.824 0.780029 11.281 0.830029 9.75103 1.02603V3.04803C7.98103 3.29203 6.56303 3.70203 5.98303 4.28103C5.41103 4.85503 4.67503 5.76403 3.96303 6.89903C3.87647 6.82514 3.76683 6.78376 3.65303 6.78203H1.41003C1.13503 6.78203 0.910034 7.00803 0.910034 7.28203V8.29203C0.910034 8.56603 1.13003 8.83203 1.40003 8.88503L2.76003 9.14503C1.58603 11.763 0.894034 15.021 1.98203 18.285V20.222C1.98203 20.775 2.12203 21.222 2.29503 21.222H4.85703C5.03003 21.222 5.17003 20.775 5.17003 20.222V18.638C7.46803 18.858 10.72 19.098 13.982 19.098C17.214 19.098 20.502 18.862 22.796 18.644V20.222C22.796 20.775 22.936 21.222 23.108 21.222H25.67C25.842 21.222 25.982 20.775 25.982 20.222L25.98 18.284C27.067 15.024 26.377 11.768 25.205 9.15003L26.597 8.88503C26.7329 8.85414 26.8547 8.77908 26.9433 8.6716C27.032 8.56412 27.0825 8.43029 27.087 8.29103V7.28103C27.0873 7.21555 27.0746 7.15066 27.0498 7.09007C27.025 7.02948 26.9884 6.97439 26.9422 6.92795C26.8961 6.88151 26.8412 6.84463 26.7808 6.81941C26.7203 6.7942 26.6555 6.78116 26.59 6.78103V6.78003ZM5.10703 14.907C4.63688 14.8914 4.19121 14.6937 3.86414 14.3555C3.53708 14.0174 3.35424 13.5654 3.35424 13.095C3.35424 12.6246 3.53708 12.1726 3.86414 11.8345C4.19121 11.4964 4.63688 11.2987 5.10703 11.283C5.57718 11.2988 6.0228 11.4967 6.34977 11.8349C6.67674 12.1731 6.85946 12.6251 6.85933 13.0955C6.8592 13.5659 6.67623 14.0179 6.34908 14.3559C6.02192 14.6939 5.57619 14.8915 5.10603 14.907H5.10703ZM3.58303 9.71703C4.54303 7.52003 5.88003 5.80003 6.69003 4.98803C7.27403 4.40303 10.03 3.78103 13.982 3.78103C17.935 3.78103 20.69 4.40403 21.275 4.98903C22.085 5.79903 23.421 7.51903 24.381 9.71703C22.249 9.95303 18.096 9.40703 13.983 9.40703C9.87003 9.40703 5.71703 9.95303 3.58303 9.71703ZM22.857 14.907C22.3869 14.8914 21.9412 14.6937 21.6141 14.3555C21.2871 14.0174 21.1042 13.5654 21.1042 13.095C21.1042 12.6246 21.2871 12.1726 21.6141 11.8345C21.9412 11.4964 22.3869 11.2987 22.857 11.283C23.3272 11.2988 23.7728 11.4967 24.0998 11.8349C24.4267 12.1731 24.6095 12.6251 24.6093 13.0955C24.6092 13.5659 24.4262 14.0179 24.0991 14.3559C23.7719 14.6939 23.3262 14.8915 22.856 14.907H22.857Z" fill="black"/>
</svg>
