<svg width="23" height="25" viewBox="0 0 23 25" fill="none" xmlns="http://www.w3.org/2000/svg">
<path d="M11.5 0.029954L0.699951 6.26295V18.733L11.5 24.97L22.2999 18.736V6.26595L11.5 0.0279541V0.029954ZM20.988 7.59995L12 12.79V23.167C12 23.442 11.775 23.667 11.5 23.667C11.225 23.667 11 23.442 11 23.167V12.787L2.01295 7.59695C1.89825 7.53065 1.81458 7.42149 1.78035 7.2935C1.74613 7.16551 1.76415 7.02916 1.83045 6.91445C1.89676 6.79975 2.00591 6.71608 2.1339 6.68185C2.2619 6.64763 2.39825 6.66565 2.51295 6.73195L11.501 11.922L20.491 6.73195C20.606 6.66601 20.7424 6.64834 20.8705 6.68283C20.9985 6.71732 21.1076 6.80115 21.174 6.91595C21.2395 7.03116 21.2569 7.16763 21.2223 7.29559C21.1876 7.42355 21.1037 7.53261 20.989 7.59895L20.988 7.59995Z" fill="black"/>
</svg>
