<svg width="1024" height="1024" viewBox="0 0 1024 1024" fill="none" xmlns="http://www.w3.org/2000/svg">
<path d="M261.056 449.6C274.88 379.904 295.936 320.64 324.416 271.872C348.16 231.04 385.536 183.232 436.672 128H320C311.513 128 303.374 124.629 297.373 118.627C291.371 112.626 288 104.487 288 96C288 87.5131 291.371 79.3737 297.373 73.3726C303.374 67.3714 311.513 64 320 64H704C712.487 64 720.626 67.3714 726.627 73.3726C732.629 79.3737 736 87.5131 736 96C736 104.487 732.629 112.626 726.627 118.627C720.626 124.629 712.487 128 704 128H554.752C569.664 167.168 596.096 214.592 634.304 269.76C681.664 338.24 719.104 376.512 740.608 384.064C796.252 385.263 849.457 407.135 889.857 445.418C930.256 483.701 954.957 535.653 959.146 591.153C963.335 646.652 946.712 701.723 912.517 745.636C878.321 789.55 829.002 819.16 774.168 828.698C719.335 838.236 662.914 827.019 615.898 797.232C568.883 767.445 534.641 721.221 519.843 667.568C505.045 613.914 510.752 556.672 535.852 506.996C560.951 457.32 603.645 418.767 655.616 398.848C632.96 375.936 608.576 345.088 581.696 306.24C542.848 250.112 514.688 200.448 497.344 156.928C442.048 215.168 402.816 264.448 379.584 304.128C356.416 343.872 338.496 392.896 326.016 451.2C381.805 460.785 431.898 491.13 466.229 536.137C500.56 581.144 516.583 637.477 511.08 693.814C505.576 750.152 478.952 802.319 436.56 839.831C394.168 877.342 339.149 897.419 282.56 896.025C225.971 894.631 172.007 871.87 131.513 832.317C91.0189 792.764 66.9962 739.35 64.2726 682.809C61.5491 626.269 80.3267 570.793 116.832 527.531C153.337 484.269 204.863 456.426 261.056 449.6V449.6ZM288 832C330.435 832 371.131 815.143 401.137 785.137C431.143 755.131 448 714.435 448 672C448 629.565 431.143 588.869 401.137 558.863C371.131 528.857 330.435 512 288 512C245.565 512 204.869 528.857 174.863 558.863C144.857 588.869 128 629.565 128 672C128 714.435 144.857 755.131 174.863 785.137C204.869 815.143 245.565 832 288 832V832ZM736 768C778.435 768 819.131 751.143 849.137 721.137C879.143 691.131 896 650.435 896 608C896 565.565 879.143 524.869 849.137 494.863C819.131 464.857 778.435 448 736 448C693.565 448 652.869 464.857 622.863 494.863C592.857 524.869 576 565.565 576 608C576 650.435 592.857 691.131 622.863 721.137C652.869 751.143 693.565 768 736 768Z" fill="black"/>
</svg>
