<svg width="14" height="28" viewBox="0 0 14 28" fill="none" xmlns="http://www.w3.org/2000/svg">
<path d="M12.022 15.3499C11.412 14.2449 10.662 13.3499 9.91197 12.7259C9.01426 13.392 7.92679 13.753 6.80897 13.7559C5.69018 13.7533 4.60167 13.3923 3.70297 12.7259C2.95297 13.3509 2.20497 14.2459 1.59297 15.3489C0.169971 17.9109 0.0129701 20.5389 1.24097 21.2219C1.79097 21.5289 2.36797 21.2999 2.96397 20.7259C2.85284 21.3441 2.79695 21.9709 2.79697 22.5989C2.79697 25.5309 3.93697 27.9059 5.33997 27.9059C6.18697 27.9059 6.60597 27.0409 6.80697 25.7159C7.00697 27.0409 7.42697 27.9059 8.27097 27.9059C9.67797 27.9059 10.817 25.5309 10.817 22.5989C10.817 21.9389 10.757 21.3089 10.649 20.7259C11.247 21.2999 11.823 21.5289 12.374 21.2219C13.604 20.5399 13.444 17.9119 12.024 15.3479L12.022 15.3499ZM6.80797 12.7569C7.37534 12.7655 7.93875 12.6612 8.46542 12.45C8.99208 12.2389 9.47149 11.925 9.87573 11.5268C10.28 11.1286 10.601 10.654 10.8201 10.1306C11.0392 9.60714 11.1519 9.04536 11.1519 8.47793C11.1518 7.9105 11.0389 7.34875 10.8197 6.82537C10.6005 6.30199 10.2794 5.82744 9.87502 5.42933C9.47068 5.03123 8.99121 4.71751 8.46449 4.50645C7.93777 4.29539 7.37433 4.1912 6.80697 4.19994C6.23726 4.18762 5.67082 4.2892 5.14089 4.4987C4.61096 4.70821 4.1282 5.02143 3.72093 5.41999C3.31365 5.81855 2.99007 6.29443 2.76916 6.81971C2.54825 7.34499 2.43446 7.9091 2.43446 8.47894C2.43446 9.04878 2.54825 9.61289 2.76916 10.1382C2.99007 10.6635 3.31365 11.1393 3.72093 11.5379C4.1282 11.9365 4.61096 12.2497 5.14089 12.4592C5.67082 12.6687 6.23726 12.7703 6.80697 12.7579L6.80797 12.7569ZM9.73097 3.97394C10.967 4.42894 10.224 3.24894 10.224 2.44394C10.224 1.63894 10.986 0.65094 9.73197 1.05194C8.41697 1.47394 7.34997 1.70594 7.34997 2.51194C7.34997 3.31794 8.41697 3.48894 9.73297 3.97394H9.73097ZM6.81697 3.39994C7.59897 3.39994 7.16197 3.00394 7.16197 2.51594C7.16197 2.02794 7.60197 1.63294 6.81797 1.63294C6.03397 1.63294 6.44397 2.02894 6.44397 2.51594C6.44397 3.00594 6.03597 3.39994 6.81797 3.39994H6.81697ZM3.88497 3.97394C5.20097 3.48994 6.26797 3.31994 6.26797 2.51394C6.26797 1.70794 5.19997 1.47294 3.88397 1.04994C2.62997 0.64794 3.39197 1.63394 3.39197 2.43994C3.39197 3.24594 2.64797 4.42594 3.88397 3.97194L3.88497 3.97394Z" fill="black"/>
</svg>
