<svg width="1024" height="1024" viewBox="0 0 1024 1024" fill="none" xmlns="http://www.w3.org/2000/svg">
<path d="M544 195.2C582.361 203.038 616.517 224.67 640 256C655.902 234.805 676.819 217.89 700.873 206.776C724.927 195.662 751.365 190.695 777.812 192.323C804.26 193.951 829.889 202.121 852.399 216.101C874.908 230.081 893.593 249.432 906.777 272.417C919.96 295.403 927.228 321.302 927.928 347.791C928.629 374.279 922.74 400.526 910.79 424.177C898.841 447.827 881.204 468.139 859.465 483.289C837.726 498.439 812.565 507.953 786.24 510.976C796.451 533.929 801.115 558.963 799.852 584.053C798.59 609.143 791.437 633.583 778.973 655.395C766.51 677.207 749.085 695.777 728.11 709.603C707.135 723.428 683.199 732.121 658.24 734.976C669.053 759.335 673.61 786.01 671.496 812.578C669.383 839.145 660.666 864.764 646.139 887.108C631.611 909.451 611.731 927.812 588.306 940.522C564.881 953.233 538.651 959.89 512 959.89C485.349 959.89 459.119 953.233 435.694 940.522C412.269 927.812 392.389 909.451 377.861 887.108C363.334 864.764 354.617 839.145 352.504 812.578C350.39 786.01 354.947 759.335 365.76 734.976C340.801 732.121 316.865 723.428 295.89 709.603C274.915 695.777 257.49 677.207 245.027 655.395C232.563 633.583 225.41 609.143 224.148 584.053C222.885 558.963 227.549 533.929 237.76 510.976C211.436 507.953 186.274 498.439 164.535 483.289C142.796 468.139 125.159 447.827 113.21 424.177C101.26 400.526 95.371 374.279 96.0716 347.791C96.7722 321.302 104.04 295.403 117.223 272.417C130.407 249.432 149.092 230.081 171.601 216.101C194.111 202.121 219.74 193.951 246.188 192.323C272.635 190.695 299.073 195.662 323.127 206.776C347.181 217.89 368.098 234.805 384 256C407.483 224.67 441.639 203.038 480 195.2V128H416C407.513 128 399.374 124.629 393.373 118.627C387.371 112.626 384 104.487 384 96C384 87.5131 387.371 79.3737 393.373 73.3726C399.374 67.3714 407.513 64 416 64H608C616.487 64 624.626 67.3714 630.627 73.3726C636.629 79.3737 640 87.5131 640 96C640 104.487 636.629 112.626 630.627 118.627C624.626 124.629 616.487 128 608 128H544V195.2ZM512 448C524.607 448 537.09 445.517 548.738 440.692C560.385 435.868 570.968 428.797 579.882 419.882C588.797 410.968 595.868 400.385 600.692 388.738C605.517 377.09 608 364.607 608 352C608 339.393 605.517 326.91 600.692 315.262C595.868 303.615 588.797 293.032 579.882 284.118C570.968 275.203 560.385 268.132 548.738 263.308C537.09 258.483 524.607 256 512 256C486.539 256 462.121 266.114 444.118 284.118C426.114 302.121 416 326.539 416 352C416 377.461 426.114 401.879 444.118 419.882C462.121 437.886 486.539 448 512 448V448ZM256 448C268.607 448 281.09 445.517 292.738 440.692C304.385 435.868 314.968 428.797 323.882 419.882C332.797 410.968 339.868 400.385 344.692 388.738C349.517 377.09 352 364.607 352 352C352 339.393 349.517 326.91 344.692 315.262C339.868 303.615 332.797 293.032 323.882 284.118C314.968 275.203 304.385 268.132 292.738 263.308C281.09 258.483 268.607 256 256 256C230.539 256 206.121 266.114 188.118 284.118C170.114 302.121 160 326.539 160 352C160 377.461 170.114 401.879 188.118 419.882C206.121 437.886 230.539 448 256 448V448ZM384 672C409.461 672 433.879 661.886 451.882 643.882C469.886 625.879 480 601.461 480 576C480 550.539 469.886 526.121 451.882 508.118C433.879 490.114 409.461 480 384 480C358.539 480 334.121 490.114 316.118 508.118C298.114 526.121 288 550.539 288 576C288 601.461 298.114 625.879 316.118 643.882C334.121 661.886 358.539 672 384 672V672ZM512 896C524.607 896 537.09 893.517 548.738 888.692C560.385 883.868 570.968 876.797 579.882 867.882C588.797 858.968 595.868 848.385 600.692 836.738C605.517 825.09 608 812.607 608 800C608 787.393 605.517 774.91 600.692 763.262C595.868 751.615 588.797 741.032 579.882 732.118C570.968 723.203 560.385 716.132 548.738 711.308C537.09 706.483 524.607 704 512 704C486.539 704 462.121 714.114 444.118 732.118C426.114 750.121 416 774.539 416 800C416 825.461 426.114 849.879 444.118 867.882C462.121 885.886 486.539 896 512 896V896ZM640 672C665.461 672 689.879 661.886 707.882 643.882C725.886 625.879 736 601.461 736 576C736 550.539 725.886 526.121 707.882 508.118C689.879 490.114 665.461 480 640 480C614.539 480 590.121 490.114 572.118 508.118C554.114 526.121 544 550.539 544 576C544 601.461 554.114 625.879 572.118 643.882C590.121 661.886 614.539 672 640 672ZM768 448C780.607 448 793.09 445.517 804.738 440.692C816.385 435.868 826.968 428.797 835.882 419.882C844.797 410.968 851.868 400.385 856.692 388.738C861.517 377.09 864 364.607 864 352C864 339.393 861.517 326.91 856.692 315.262C851.868 303.615 844.797 293.032 835.882 284.118C826.968 275.203 816.385 268.132 804.738 263.308C793.09 258.483 780.607 256 768 256C742.539 256 718.121 266.114 700.118 284.118C682.114 302.121 672 326.539 672 352C672 377.461 682.114 401.879 700.118 419.882C718.121 437.886 742.539 448 768 448V448Z" fill="black"/>
</svg>
