<svg width="25" height="23" viewBox="0 0 25 23" fill="none" xmlns="http://www.w3.org/2000/svg">
<path d="M0.739969 9.62C0.739969 9.62 4.25497 4.95 6.32997 5.977C8.40797 7.004 5.91697 8.772 7.92997 9.697C9.93997 10.62 12.977 9.467 12.305 6.797C11.633 4.127 10.439 6.021 9.50697 4.589C8.57297 3.156 14.093 0 14.093 0C14.093 0 17.453 6.65 18.409 4.91C19.565 2.805 21.601 0.645 23.713 3.885C23.713 3.885 25.527 6.297 23.959 7.319C22.391 8.341 21.042 7.761 20.453 8.871C19.867 9.983 24.237 12.964 24.237 12.964C24.237 12.964 21.25 17.774 19.311 16.512C17.371 15.25 19.667 13.148 16.711 12.522C15.424 12.292 13.274 13.062 12.894 14.862C12.764 17.572 14.498 16.879 15.691 18.338C16.881 19.794 11.207 22.858 11.207 22.858C11.207 22.858 9.62297 18.936 7.39697 18.202C5.16897 17.467 6.50297 20.337 4.47897 20.732C2.45497 21.129 -0.337031 18.334 1.01897 15.944C2.37697 13.554 4.29397 15.9 4.45897 13.994C4.62897 12.084 0.738969 9.617 0.738969 9.617L0.739969 9.62Z" fill="black"/>
</svg>
