<svg width="30" height="30" viewBox="0 0 30 30" fill="none" xmlns="http://www.w3.org/2000/svg">
<path d="M14.9999 0.465942C6.97294 0.465942 0.465942 6.97294 0.465942 14.9999C0.465942 23.0269 6.97294 29.5339 14.9999 29.5339C23.0269 29.5339 29.5339 23.0269 29.5339 14.9999C29.5339 6.97294 23.0269 0.465942 14.9999 0.465942V0.465942ZM14.9999 28.5339C7.53994 28.5339 1.46594 22.4619 1.46594 14.9999C1.46594 7.53994 7.53994 1.46594 14.9999 1.46594C22.4619 1.46594 28.5349 7.53794 28.5349 14.9989C28.5349 22.4609 22.4619 28.5329 14.9999 28.5329V28.5339ZM10.1039 12.9999C11.0359 12.9999 11.7919 11.5169 11.7919 9.68794C11.7919 7.85894 11.0369 6.37594 10.1039 6.37594C9.17094 6.37594 8.41594 7.85894 8.41594 9.68794C8.41594 11.5169 9.17194 12.9999 10.1039 12.9999ZM19.7289 12.9999C20.6619 12.9999 21.4159 11.5169 21.4159 9.68794C21.4159 7.85894 20.6599 6.37594 19.7279 6.37594C18.7949 6.37594 18.0379 7.85894 18.0379 9.68794C18.0379 11.5169 18.7999 12.9999 19.7299 12.9999H19.7289ZM7.14194 20.1899C9.45794 23.2419 12.1479 24.9999 15.0199 24.9999C17.9899 24.9999 20.7659 23.1319 23.1299 19.8899C20.6159 21.6449 17.8399 22.6249 14.9159 22.6249C12.1639 22.6249 9.53994 21.7549 7.14294 20.1889L7.14194 20.1899Z" fill="black"/>
</svg>
