<svg width="21" height="21" viewBox="0 0 21 21" fill="none" xmlns="http://www.w3.org/2000/svg">
<path d="M14.67 3.10994L11.894 5.88694L8.05698 5.02695C8.41898 4.52095 8.97298 3.34294 8.52098 2.89094C8.00398 2.37494 6.54298 3.17094 6.21698 3.49594L5.30398 4.40895L2.61398 3.80494L0.593977 5.82494L2.82598 6.88694L2.74398 6.96894L4.44398 8.66894L5.13398 7.98294L8.29698 9.48695L4.56998 13.2099H1.41398L0.276978 14.3479L3.87698 15.2959L5.70698 17.1259L6.65398 20.7239L7.79098 19.5869V16.4299L11.516 12.7049L13.02 15.8689L12.332 16.5549L14.034 18.2549L14.114 18.1749L15.177 20.4049L17.197 18.3849L16.593 15.6969L17.505 14.7849C17.831 14.4589 18.625 12.9949 18.109 12.4789C17.656 12.0269 16.479 12.5789 15.973 12.9429L15.113 9.10494L17.889 6.32794C18.836 5.37994 21.489 1.46494 20.509 0.487945C19.532 -0.490055 15.617 2.16094 14.669 3.10794L14.67 3.10994Z" fill="black"/>
</svg>
