<svg width="1024" height="1024" viewBox="0 0 1024 1024" fill="none" xmlns="http://www.w3.org/2000/svg">
<path d="M832 320V192H704V512C704 562.922 683.772 611.758 647.765 647.765C611.758 683.772 562.922 704 512 704C461.078 704 412.242 683.772 376.236 647.765C340.229 611.758 320 562.922 320 512V192H192V320H320V384H192V512C192 596.869 225.714 678.263 285.726 738.274C345.737 798.286 427.131 832 512 832C596.869 832 678.263 798.286 738.274 738.274C798.286 678.263 832 596.869 832 512V384H704V320H832ZM640 512V128H896V512C896 562.428 886.068 612.361 866.77 658.95C847.472 705.539 819.187 747.871 783.529 783.529C747.871 819.187 705.539 847.472 658.95 866.77C612.361 886.068 562.428 896 512 896C461.572 896 411.639 886.068 365.05 866.77C318.461 847.472 276.129 819.187 240.471 783.529C204.813 747.871 176.528 705.539 157.23 658.95C137.932 612.361 128 562.428 128 512V128H384V512C384 545.948 397.486 578.505 421.49 602.51C445.495 626.514 478.052 640 512 640C545.948 640 578.505 626.514 602.51 602.51C626.514 578.505 640 545.948 640 512Z" fill="black"/>
</svg>
