<svg width="1024" height="1024" viewBox="0 0 1024 1024" fill="none" xmlns="http://www.w3.org/2000/svg">
<path d="M608 224V160C608 151.513 604.629 143.374 598.627 137.373C592.626 131.371 584.487 128 576 128C567.513 128 559.374 131.371 553.373 137.373C547.371 143.374 544 151.513 544 160V496H570.88C584.19 495.988 597.166 491.827 608 484.096V224ZM709.12 384C695.81 384.011 682.834 388.173 672 395.904V384H736V224C736 215.513 732.629 207.374 726.627 201.373C720.626 195.371 712.487 192 704 192C695.513 192 687.374 195.371 681.373 201.373C675.371 207.374 672 215.513 672 224V384H709.12ZM784 384C797.656 384 811.145 387.011 823.506 392.817C835.866 398.623 846.795 407.082 855.515 417.592C864.235 428.103 870.531 440.406 873.956 453.626C877.38 466.846 877.849 480.658 875.328 494.08L814.656 817.664C810.536 839.674 798.851 859.551 781.625 873.856C764.398 888.161 742.712 895.994 720.32 896H303.68C281.288 895.994 259.602 888.161 242.375 873.856C225.149 859.551 213.464 839.674 209.344 817.664L148.672 494.08C146.151 480.658 146.62 466.846 150.044 453.626C153.469 440.406 159.765 428.103 168.485 417.592C177.205 407.082 188.134 398.623 200.494 392.817C212.855 387.011 226.344 384 240 384H224V224C224.003 200.751 232.444 178.292 247.754 160.796C263.064 143.299 284.203 131.953 307.247 128.864C330.29 125.776 353.671 131.154 373.049 144.002C392.426 156.849 406.482 176.292 412.608 198.72C434.174 190.139 458.123 189.684 480 197.44V160C480.003 136.751 488.444 114.292 503.754 96.7957C519.064 79.299 540.203 67.9529 563.247 64.8643C586.29 61.7757 609.671 67.1545 629.049 80.0018C648.426 92.8492 662.482 112.292 668.608 134.72C683.172 128.944 698.929 126.82 714.503 128.534C730.077 130.248 744.995 135.748 757.954 144.554C770.914 153.36 781.521 165.204 788.85 179.052C796.179 192.9 800.007 208.332 800 224V384H784ZM670.784 512C658.793 526.976 643.59 539.066 626.297 547.374C609.004 555.683 590.065 559.998 570.88 560H453.12C433.946 559.988 415.019 555.668 397.738 547.36C380.457 539.052 365.264 526.968 353.28 512H352V510.464C348.325 505.712 344.989 500.708 342.016 495.488L314.88 448H240C235.741 447.992 231.532 448.924 227.675 450.73C223.818 452.537 220.408 455.173 217.687 458.45C214.966 461.726 213.003 465.564 211.937 469.687C210.871 473.811 210.728 478.119 211.52 482.304L241.088 640H782.912L812.48 482.304C813.272 478.119 813.129 473.811 812.063 469.687C810.997 465.564 809.034 461.726 806.313 458.45C803.592 455.173 800.182 452.537 796.325 450.73C792.468 448.924 788.259 447.992 784 448H709.12L681.984 495.488C679 500.701 675.664 505.704 672 510.464V512H670.784ZM480 288C480 279.513 476.629 271.374 470.627 265.373C464.626 259.371 456.487 256 448 256C439.513 256 431.374 259.371 425.373 265.373C419.371 271.374 416 279.513 416 288V484.096C426.834 491.827 439.81 495.988 453.12 496H480V288ZM352 384V224C352 215.513 348.629 207.374 342.627 201.373C336.626 195.371 328.487 192 320 192C311.513 192 303.374 195.371 297.373 201.373C291.371 207.374 288 215.513 288 224V384H352H314.88C328.19 384.011 341.166 388.173 352 395.904V384ZM253.12 704L272.192 805.888C273.567 813.232 277.468 819.863 283.219 824.632C288.97 829.401 296.209 832.008 303.68 832H720.32C727.791 832.008 735.03 829.401 740.781 824.632C746.532 819.863 750.433 813.232 751.808 805.888L770.88 704H253.12Z" fill="black"/>
</svg>
