<svg width="1024" height="1024" viewBox="0 0 1024 1024" fill="none" xmlns="http://www.w3.org/2000/svg">
<path d="M768 192C793.598 191.925 818.953 196.969 842.573 206.836C866.193 216.702 887.602 231.193 905.539 249.455C923.477 267.717 937.583 289.381 947.025 313.174C956.468 336.967 961.057 362.408 960.524 388C959.991 413.593 954.345 438.82 943.919 462.199C933.493 485.578 918.497 506.636 899.814 524.134C881.131 541.633 859.137 555.219 835.126 564.093C811.115 572.967 785.573 576.95 760 575.808C745.822 630.806 713.766 679.532 668.873 714.323C623.98 749.113 568.796 767.996 512 768H320C252.105 768 186.99 741.029 138.981 693.019C90.9714 645.01 64 579.895 64 512V160C64 151.513 67.3714 143.374 73.3726 137.373C79.3737 131.371 87.5131 128 96 128H736C744.487 128 752.626 131.371 758.627 137.373C764.629 143.374 768 151.513 768 160V192ZM768 256V512C801.948 512 834.505 498.514 858.51 474.51C882.514 450.505 896 417.948 896 384C896 350.052 882.514 317.495 858.51 293.49C834.505 269.486 801.948 256 768 256V256ZM96 832H736C744.487 832 752.626 835.371 758.627 841.373C764.629 847.374 768 855.513 768 864C768 872.487 764.629 880.626 758.627 886.627C752.626 892.629 744.487 896 736 896H96C87.5131 896 79.3737 892.629 73.3726 886.627C67.3714 880.626 64 872.487 64 864C64 855.513 67.3714 847.374 73.3726 841.373C79.3737 835.371 87.5131 832 96 832V832ZM128 192V512C128 562.922 148.229 611.758 184.236 647.765C220.242 683.772 269.078 704 320 704H512C562.922 704 611.758 683.772 647.765 647.765C683.772 611.758 704 562.922 704 512V192H128Z" fill="black"/>
</svg>
