<svg width="1024" height="1024" viewBox="0 0 1024 1024" fill="none" xmlns="http://www.w3.org/2000/svg">
<path d="M768 576L960 512V832L768 768V864C768 872.487 764.629 880.626 758.627 886.627C752.626 892.629 744.487 896 736 896H96C87.5131 896 79.3737 892.629 73.3726 886.627C67.3714 880.626 64 872.487 64 864V480C64 471.513 67.3714 463.374 73.3726 457.373C79.3737 451.371 87.5131 448 96 448H736C744.487 448 752.626 451.371 758.627 457.373C764.629 463.374 768 471.513 768 480V576ZM192 768V832H576V768H192ZM384 288C384 245.565 400.857 204.869 430.863 174.863C460.869 144.857 501.565 128 544 128C586.435 128 627.131 144.857 657.137 174.863C687.143 204.869 704 245.565 704 288C704 330.435 687.143 371.131 657.137 401.137C627.131 431.143 586.435 448 544 448C501.565 448 460.869 431.143 430.863 401.137C400.857 371.131 384 330.435 384 288ZM448 288C448.008 313.469 458.134 337.892 476.15 355.896C494.165 373.899 518.595 384.008 544.064 384C569.533 383.992 593.956 373.866 611.96 355.85C629.963 337.835 640.073 313.405 640.064 287.936C640.056 262.467 629.93 238.044 611.914 220.04C593.899 202.037 569.469 191.928 544 191.936C518.531 191.944 494.108 202.07 476.104 220.086C458.101 238.101 447.992 262.531 448 288V288ZM128 320C128.004 303.187 131.32 286.539 137.758 271.007C144.196 255.475 153.63 241.363 165.522 229.477C177.414 217.591 191.531 208.164 207.066 201.734C222.601 195.303 239.251 191.996 256.064 192C272.877 192.004 289.525 195.32 305.057 201.758C320.589 208.196 334.701 217.63 346.587 229.522C358.473 241.414 367.9 255.531 374.33 271.066C380.761 286.601 384.068 303.251 384.064 320.064C384.056 354.02 370.558 386.582 346.542 410.587C322.525 434.592 289.956 448.072 256 448.064C222.044 448.056 189.482 434.558 165.477 410.542C141.472 386.525 127.992 353.956 128 320V320ZM192 320C192 336.974 198.743 353.252 210.745 365.255C222.747 377.257 239.026 384 256 384C272.974 384 289.252 377.257 301.255 365.255C313.257 353.252 320 336.974 320 320C320 303.026 313.257 286.748 301.255 274.745C289.252 262.743 272.974 256 256 256C239.026 256 222.747 262.743 210.745 274.745C198.743 286.748 192 303.026 192 320V320Z" fill="black"/>
</svg>
