<svg width="32" height="32" viewBox="0 0 32 32" fill="none" xmlns="http://www.w3.org/2000/svg">
<path d="M16 1.66699C8.08399 1.66699 1.66699 8.08399 1.66699 16C1.66699 23.916 8.08399 30.333 16 30.333C23.916 30.333 30.333 23.916 30.333 16C30.333 8.08399 23.916 1.66699 16 1.66699ZM25.534 8.23199C27.2931 10.3843 28.2688 13.0704 28.301 15.85C25.071 15.194 22.161 15.067 19.525 15.47C19.1685 14.6575 18.7934 13.8533 18.4 13.058C22.43 11.542 24.497 9.78099 25.534 8.23199ZM23.954 6.62399C23.078 8.28199 20.764 9.85599 17.391 11.1C15.859 8.23999 14.277 5.79999 13.004 4.06699C13.964 3.82699 14.968 3.69699 16.001 3.69699C19.031 3.69699 21.811 4.79999 23.956 6.62399H23.954ZM10.847 4.82999C11.937 6.27199 13.597 8.73999 15.262 11.798C11.576 12.871 7.23199 13.475 3.98199 13.383C4.39018 11.5249 5.22225 9.78623 6.41327 8.30275C7.60428 6.81928 9.12201 5.63111 10.848 4.83099L10.847 4.82999ZM3.69599 16C3.69599 15.853 3.70199 15.707 3.70599 15.56C4.01899 15.574 4.33899 15.58 4.66599 15.58C8.13099 15.58 12.421 14.934 16.151 13.815L16.291 13.771C16.646 14.476 16.989 15.203 17.325 15.947C16.809 16.093 16.303 16.261 15.807 16.454C12.26 17.829 9.29499 20.349 6.77699 24.132C4.79086 21.8897 3.69514 18.9974 3.69699 16.002L3.69599 16ZM8.38799 25.656C10.698 22.082 13.39 19.732 16.598 18.489C17.113 18.289 17.646 18.119 18.191 17.975C19.397 20.971 20.358 24.18 20.751 27.348C19.2467 27.9778 17.6319 28.3015 16.001 28.3C13.2375 28.3041 10.5541 27.3713 8.38899 25.654L8.38799 25.656ZM22.802 26.246C22.356 23.306 21.482 20.351 20.389 17.56C22.704 17.28 25.269 17.443 28.129 18.045C27.8477 19.7031 27.2298 21.2861 26.3135 22.6963C25.3972 24.1066 24.2018 25.3143 22.801 26.245L22.802 26.246Z" fill="black"/>
</svg>
