<svg width="1024" height="1024" viewBox="0 0 1024 1024" fill="none" xmlns="http://www.w3.org/2000/svg">
<path d="M512 768C579.895 768 645.01 741.029 693.019 693.019C741.029 645.01 768 579.895 768 512C768 444.105 741.029 378.99 693.019 330.981C645.01 282.971 579.895 256 512 256C444.105 256 378.99 282.971 330.981 330.981C282.971 378.99 256 444.105 256 512C256 579.895 282.971 645.01 330.981 693.019C378.99 741.029 444.105 768 512 768V768ZM512 832C427.131 832 345.737 798.286 285.726 738.274C225.714 678.263 192 596.869 192 512C192 427.131 225.714 345.737 285.726 285.726C345.737 225.714 427.131 192 512 192C596.869 192 678.263 225.714 738.274 285.726C798.286 345.737 832 427.131 832 512C832 596.869 798.286 678.263 738.274 738.274C678.263 798.286 596.869 832 512 832Z" fill="black"/>
<path d="M480 352C488.487 352 496.626 355.371 502.627 361.373C508.629 367.374 512 375.513 512 384V544C512 552.487 508.629 560.626 502.627 566.627C496.626 572.629 488.487 576 480 576C471.513 576 463.374 572.629 457.373 566.627C451.371 560.626 448 552.487 448 544V384C448 375.513 451.371 367.374 457.373 361.373C463.374 355.371 471.513 352 480 352V352Z" fill="black"/>
<path d="M480 512H608C629.333 512 640 522.667 640 544C640 565.333 629.333 576 608 576H480C458.667 576 448 565.333 448 544C448 522.667 458.667 512 480 512ZM608 256V128H416V256H352V64H672V256H608ZM416 768V896H608V768H672V960H352V768H416Z" fill="black"/>
</svg>
