<svg width="1024" height="1024" viewBox="0 0 1024 1024" fill="none" xmlns="http://www.w3.org/2000/svg">
<path d="M896 529.152V512C896 461.572 886.068 411.639 866.77 365.05C847.472 318.461 819.187 276.129 783.529 240.471C747.871 204.813 705.539 176.528 658.95 157.23C612.361 137.932 562.428 128 512 128C461.572 128 411.639 137.932 365.05 157.23C318.461 176.528 276.129 204.813 240.471 240.471C204.813 276.129 176.528 318.461 157.23 365.05C137.932 411.639 128 461.572 128 512V529.152C147.458 517.918 169.531 512.003 191.999 512.003C214.468 512.003 236.54 517.917 255.999 529.151C275.457 540.385 291.615 556.543 302.85 576.001C314.085 595.459 319.999 617.532 320 640V768C320 801.948 306.514 834.505 282.51 858.51C258.505 882.514 225.948 896 192 896C158.052 896 125.495 882.514 101.49 858.51C77.4857 834.505 64 801.948 64 768V512C64 393.183 111.2 279.232 195.216 195.216C279.232 111.2 393.183 64 512 64C630.817 64 744.768 111.2 828.784 195.216C912.8 279.232 960 393.183 960 512V768C960 801.948 946.514 834.505 922.51 858.51C898.505 882.514 865.948 896 832 896C798.052 896 765.495 882.514 741.49 858.51C717.486 834.505 704 801.948 704 768V640C704.001 617.532 709.915 595.459 721.15 576.001C732.385 556.543 748.543 540.385 768.001 529.151C787.46 517.917 809.532 512.003 832.001 512.003C854.469 512.003 876.542 517.918 896 529.152ZM896 640C896 623.026 889.257 606.748 877.255 594.745C865.252 582.743 848.974 576 832 576C815.026 576 798.748 582.743 786.745 594.745C774.743 606.748 768 623.026 768 640V768C768 784.974 774.743 801.252 786.745 813.255C798.748 825.257 815.026 832 832 832C848.974 832 865.252 825.257 877.255 813.255C889.257 801.252 896 784.974 896 768V640ZM128 640V768C128 784.974 134.743 801.252 146.745 813.255C158.747 825.257 175.026 832 192 832C208.974 832 225.253 825.257 237.255 813.255C249.257 801.252 256 784.974 256 768V640C256 623.026 249.257 606.748 237.255 594.745C225.253 582.743 208.974 576 192 576C175.026 576 158.747 582.743 146.745 594.745C134.743 606.748 128 623.026 128 640V640Z" fill="black"/>
</svg>
