<svg width="1024" height="952" viewBox="0 0 1024 952" fill="none" xmlns="http://www.w3.org/2000/svg">
<path d="M160 224C143.026 224 126.747 230.743 114.745 242.745C102.743 254.747 96 271.026 96 288V800C96 816.974 102.743 833.252 114.745 845.255C126.747 857.257 143.026 864 160 864H864C880.974 864 897.252 857.257 909.255 845.255C921.257 833.252 928 816.974 928 800V288C928 271.026 921.257 254.747 909.255 242.745C897.252 230.743 880.974 224 864 224H748.416L701.952 131.328C696.632 120.711 688.462 111.783 678.358 105.544C668.253 99.305 656.612 96.0004 644.736 96H379.328C367.446 96.0063 355.8 99.3205 345.694 105.571C335.589 111.822 327.423 120.763 322.112 131.392L275.776 224H160ZM512 659.2C542.553 659.2 571.854 647.063 593.459 625.459C615.063 603.854 627.2 574.553 627.2 544C627.2 513.447 615.063 484.145 593.459 462.541C571.854 440.937 542.553 428.8 512 428.8C481.447 428.8 452.145 440.937 430.541 462.541C408.937 484.145 396.8 513.447 396.8 544C396.8 574.553 408.937 603.854 430.541 625.459C452.145 647.063 481.447 659.2 512 659.2V659.2ZM512 800C444.105 800 378.99 773.029 330.981 725.019C282.971 677.01 256 611.895 256 544C256 476.105 282.971 410.99 330.981 362.981C378.99 314.971 444.105 288 512 288C579.895 288 645.01 314.971 693.019 362.981C741.029 410.99 768 476.105 768 544C768 611.895 741.029 677.01 693.019 725.019C645.01 773.029 579.895 800 512 800Z" fill="black"/>
</svg>
