<svg width="14" height="24" viewBox="0 0 14 24" fill="none" xmlns="http://www.w3.org/2000/svg">
<path d="M12.02 11.35C11.41 10.245 10.662 9.35002 9.91201 8.72602C9.01423 9.39195 7.9268 9.75291 6.80901 9.75602C5.69022 9.75334 4.60171 9.39237 3.70301 8.72602C2.95301 9.35102 2.20501 10.246 1.59301 11.349C0.170008 13.911 0.0130076 16.539 1.24301 17.222C1.79301 17.529 2.36901 17.3 2.96501 16.726C2.85422 17.3442 2.79867 17.971 2.79901 18.599C2.79901 21.531 3.93901 23.906 5.34201 23.906C6.18801 23.906 6.60701 23.041 6.80801 21.716C7.00801 23.041 7.42801 23.906 8.27001 23.906C9.67601 23.906 10.815 21.531 10.815 18.599C10.815 17.939 10.755 17.309 10.647 16.726C11.244 17.3 11.82 17.529 12.371 17.222C13.599 16.54 13.441 13.912 12.018 11.348L12.02 11.35ZM6.80801 8.75702C7.37006 8.75682 7.92658 8.64592 8.44578 8.43065C8.96498 8.21538 9.43669 7.89995 9.83399 7.50238C10.2313 7.1048 10.5464 6.63287 10.7613 6.11352C10.9762 5.59417 11.0867 5.03758 11.0865 4.47552C11.0863 3.91346 10.9754 3.35695 10.7601 2.83775C10.5449 2.31855 10.2294 1.84684 9.83186 1.44954C9.43429 1.05225 8.96236 0.737151 8.44301 0.522243C7.92366 0.307335 7.36707 0.196825 6.80501 0.197022C6.24288 0.197219 5.6863 0.308132 5.16705 0.523429C4.64779 0.738726 4.17602 1.05419 3.77868 1.45181C2.97621 2.25484 2.52561 3.34376 2.52601 4.47902C2.52641 5.61428 2.97777 6.70288 3.7808 7.50535C4.58383 8.30782 5.67275 8.75842 6.80801 8.75802V8.75702Z" fill="black"/>
</svg>
