<svg width="1024" height="1024" viewBox="0 0 1024 1024" fill="none" xmlns="http://www.w3.org/2000/svg">
<path d="M308.352 489.344L534.656 715.648C540.657 721.647 548.795 725.017 557.28 725.017C565.765 725.017 573.903 721.647 579.904 715.648L783.552 512C819.562 475.99 839.792 427.15 839.792 376.224C839.792 325.298 819.562 276.458 783.552 240.448C747.542 204.438 698.702 184.208 647.776 184.208C596.85 184.208 548.01 204.438 512 240.448L308.352 444.16C302.353 450.161 298.983 458.299 298.983 466.784C298.983 475.269 302.353 483.407 308.352 489.408V489.344ZM444.096 715.648L308.352 851.392C290.246 868.879 265.996 878.555 240.825 878.337C215.655 878.118 191.577 868.022 173.777 850.223C155.978 832.423 145.882 808.345 145.663 783.174C145.445 758.004 155.121 733.754 172.608 715.648L308.352 579.904L263.104 534.656C254.183 525.741 247.106 515.155 242.278 503.504C237.45 491.853 234.964 479.364 234.964 466.752C234.964 454.14 237.45 441.651 242.278 430C247.106 418.349 254.183 407.763 263.104 398.848L466.752 195.2C514.763 147.189 579.879 120.217 647.776 120.217C715.673 120.217 780.789 147.189 828.8 195.2C876.811 243.211 903.783 308.327 903.783 376.224C903.783 444.121 876.811 509.237 828.8 557.248L625.152 760.96C616.237 769.881 605.651 776.958 594 781.786C582.349 786.614 569.86 789.099 557.248 789.099C544.636 789.099 532.147 786.614 520.496 781.786C508.845 776.958 498.259 769.881 489.344 760.96L444.096 715.712V715.648ZM398.848 670.4L353.6 625.152L217.856 760.896C212.027 766.931 208.802 775.015 208.874 783.405C208.947 791.795 212.313 799.821 218.246 805.754C224.179 811.687 232.205 815.053 240.595 815.126C248.985 815.198 257.069 811.973 263.104 806.144L398.848 670.4ZM647.808 285.76C653.807 291.761 657.177 299.899 657.177 308.384C657.177 316.869 653.807 325.007 647.808 331.008L466.624 512C463.7 515.172 460.166 517.72 456.232 519.491C452.298 521.262 448.047 522.22 443.734 522.306C439.421 522.392 435.135 521.606 431.134 519.993C427.133 518.381 423.499 515.976 420.451 512.924C417.403 509.871 415.003 506.234 413.396 502.23C411.79 498.227 411.009 493.94 411.102 489.627C411.194 485.314 412.157 481.064 413.934 477.133C415.711 473.202 418.264 469.671 421.44 466.752L602.432 285.696C608.433 279.697 616.571 276.327 625.056 276.327C633.541 276.327 641.679 279.697 647.68 285.696L647.808 285.76ZM738.304 376.256C744.303 382.257 747.673 390.395 747.673 398.88C747.673 407.365 744.303 415.503 738.304 421.504L557.248 602.496C554.296 605.552 550.765 607.99 546.861 609.667C542.957 611.344 538.758 612.227 534.509 612.264C530.26 612.301 526.046 611.491 522.113 609.882C518.181 608.273 514.608 605.897 511.603 602.893C508.599 599.888 506.223 596.315 504.614 592.383C503.005 588.45 502.195 584.236 502.232 579.987C502.269 575.738 503.152 571.539 504.829 567.635C506.506 563.731 508.944 560.2 512 557.248L692.992 376.256C695.965 373.276 699.496 370.912 703.383 369.298C707.271 367.685 711.439 366.855 715.648 366.855C719.857 366.855 724.025 367.685 727.913 369.298C731.8 370.912 735.331 373.276 738.304 376.256V376.256Z" fill="black"/>
</svg>
