<svg width="25" height="24" viewBox="0 0 25 24" fill="none" xmlns="http://www.w3.org/2000/svg">
<path d="M11.6149 0.927977C12.1019 -0.0580235 12.8989 -0.0580235 13.3849 0.927977L15.6349 5.48198C16.1209 6.46798 17.4099 7.40498 18.4989 7.56198L23.5219 8.29198C24.6119 8.45198 24.8569 9.20898 24.0689 9.97698L20.4329 13.521C19.6449 14.291 19.1529 15.805 19.3379 16.891L20.1959 21.894C20.3819 22.979 19.7359 23.447 18.7629 22.934L14.2679 20.572C13.2939 20.062 11.7009 20.062 10.7279 20.572L6.23195 22.936C5.25795 23.448 4.61395 22.98 4.79995 21.896L5.65795 16.891C5.84395 15.805 5.35095 14.291 4.56395 13.521L0.929946 9.97798C0.141946 9.20998 0.387946 8.45298 1.47695 8.29398L6.50295 7.56398C7.59095 7.40598 8.87995 6.46898 9.36695 5.48398L11.6149 0.928976V0.927977Z" fill="black"/>
</svg>
