<svg width="1024" height="1024" viewBox="0 0 1024 1024" fill="none" xmlns="http://www.w3.org/2000/svg">
<path d="M896 256H128V832H896V256ZM696.576 192L664.512 128H359.552L327.552 192H696.576ZM96 192H256L302.336 99.392C307.647 88.7628 315.813 79.8222 325.918 73.5714C336.024 67.3205 347.67 64.0063 359.552 64H664.512C676.388 64.0004 688.029 67.305 698.134 73.5441C708.238 79.7832 716.408 88.7108 721.728 99.328L768.192 192H928C936.487 192 944.626 195.371 950.627 201.373C956.629 207.374 960 215.513 960 224V864C960 872.487 956.629 880.626 950.627 886.627C944.626 892.629 936.487 896 928 896H96C87.5131 896 79.3737 892.629 73.3726 886.627C67.3714 880.626 64 872.487 64 864V224C64 215.513 67.3714 207.374 73.3726 201.373C79.3737 195.371 87.5131 192 96 192V192ZM512 704C554.435 704 595.131 687.143 625.137 657.137C655.143 627.131 672 586.435 672 544C672 501.565 655.143 460.869 625.137 430.863C595.131 400.857 554.435 384 512 384C469.565 384 428.869 400.857 398.863 430.863C368.857 460.869 352 501.565 352 544C352 586.435 368.857 627.131 398.863 657.137C428.869 687.143 469.565 704 512 704V704ZM512 768C452.592 768 395.616 744.4 353.608 702.392C311.6 660.384 288 603.408 288 544C288 484.592 311.6 427.616 353.608 385.608C395.616 343.6 452.592 320 512 320C571.408 320 628.384 343.6 670.392 385.608C712.4 427.616 736 484.592 736 544C736 603.408 712.4 660.384 670.392 702.392C628.384 744.4 571.408 768 512 768V768Z" fill="black"/>
</svg>
