<svg width="1024" height="1024" viewBox="0 0 1024 1024" fill="none" xmlns="http://www.w3.org/2000/svg">
<path d="M640 832C640 865.948 626.514 898.505 602.51 922.51C578.505 946.514 545.948 960 512 960C478.052 960 445.495 946.514 421.49 922.51C397.486 898.505 384 865.948 384 832H640ZM832 768H134.4C124.216 768 114.448 763.954 107.247 756.753C100.046 749.552 96 739.784 96 729.6C96 719.416 100.046 709.649 107.247 702.447C114.448 695.246 124.216 691.2 134.4 691.2H192V448C192 293.12 302.08 163.84 448.32 134.4C447.427 125.501 448.409 116.514 451.202 108.018C453.996 99.5214 458.539 91.705 464.539 85.0726C470.539 78.4401 477.863 73.1389 486.037 69.5107C494.212 65.8826 503.056 64.0081 512 64.0081C520.944 64.0081 529.788 65.8826 537.963 69.5107C546.137 73.1389 553.461 78.4401 559.461 85.0726C565.461 91.705 570.004 99.5214 572.798 108.018C575.591 116.514 576.573 125.501 575.68 134.4C648.007 149.112 713.029 188.364 759.739 245.511C806.448 302.659 831.976 374.192 832 448V691.2H889.6C899.784 691.2 909.551 695.246 916.753 702.447C923.954 709.649 928 719.416 928 729.6C928 739.784 923.954 749.552 916.753 756.753C909.551 763.954 899.784 768 889.6 768H832Z" fill="black"/>
</svg>
