<svg width="1024" height="1024" viewBox="0 0 1024 1024" fill="none" xmlns="http://www.w3.org/2000/svg">
<path d="M714.432 704C756.235 674.646 791.142 636.54 816.729 592.33C842.315 548.121 857.965 498.87 862.592 448H161.408C166.035 498.87 181.685 548.121 207.271 592.33C232.858 636.54 267.765 674.646 309.568 704H714.432ZM288 766.592C229.113 728.997 180.651 677.167 147.093 615.889C113.534 554.612 95.9622 485.865 96 416C96 407.513 99.3714 399.374 105.373 393.373C111.374 387.371 119.513 384 128 384H896C904.487 384 912.626 387.371 918.627 393.373C924.629 399.374 928 407.513 928 416C928.038 485.865 910.466 554.612 876.907 615.889C843.349 677.167 794.887 728.997 736 766.592V832C736 848.974 729.257 865.253 717.255 877.255C705.252 889.257 688.974 896 672 896H352C335.026 896 318.748 889.257 306.745 877.255C294.743 865.253 288 848.974 288 832V766.592ZM493.248 320H402.752L657.152 65.6C660.104 62.5437 663.635 60.1059 667.539 58.4288C671.443 56.7517 675.642 55.8689 679.891 55.832C684.14 55.7951 688.354 56.6048 692.286 58.2137C696.219 59.8227 699.792 62.1988 702.797 65.2034C705.801 68.208 708.177 71.7808 709.786 75.7135C711.395 79.6462 712.205 83.8599 712.168 88.1089C712.131 92.3578 711.248 96.5569 709.571 100.461C707.894 104.365 705.456 107.896 702.4 110.848L493.248 320ZM680.576 320H552.576L822.272 164.288C829.618 160.111 838.318 159.01 846.472 161.224C854.627 163.438 861.576 168.788 865.801 176.106C870.026 183.424 871.185 192.116 869.025 200.285C866.865 208.455 861.562 215.438 854.272 219.712L680.576 320ZM352 768V832H672V768H352Z" fill="black"/>
</svg>
