<svg width="1024" height="1024" viewBox="0 0 1024 1024" fill="none" xmlns="http://www.w3.org/2000/svg">
<path d="M320 288V265.664C320 154.688 405.504 64 512 64C618.496 64 704 154.688 704 265.664V288.064H835.072C842.999 288.072 850.642 291.022 856.518 296.343C862.395 301.664 866.087 308.976 866.88 316.864L924.48 892.864C924.927 897.311 924.437 901.803 923.043 906.049C921.648 910.295 919.379 914.202 916.383 917.519C913.386 920.835 909.728 923.486 905.644 925.303C901.56 927.119 897.141 928.06 892.672 928.064H131.328C126.858 928.06 122.439 927.119 118.356 925.303C114.272 923.486 110.614 920.835 107.617 917.519C104.621 914.202 102.352 910.295 100.957 906.049C99.5626 901.803 99.073 897.311 99.52 892.864L157.12 316.864C157.913 308.976 161.605 301.664 167.482 296.343C173.358 291.022 181.001 288.072 188.928 288.064H320V288ZM384 288H640V265.664C640 189.248 582.272 128 512 128C441.728 128 384 189.248 384 265.664V288.064V288ZM320 352H217.92L166.72 864H857.28L806.016 352H704V448C704 456.487 700.629 464.626 694.627 470.627C688.626 476.629 680.487 480 672 480C663.513 480 655.374 476.629 649.373 470.627C643.371 464.626 640 456.487 640 448V352H384V448C384 456.487 380.629 464.626 374.627 470.627C368.626 476.629 360.487 480 352 480C343.513 480 335.374 476.629 329.373 470.627C323.371 464.626 320 456.487 320 448V352Z" fill="black"/>
</svg>
