<svg width="30" height="25" viewBox="0 0 30 25" fill="none" xmlns="http://www.w3.org/2000/svg">
<path d="M27.4359 12.1C26.2359 11.897 24.9859 11.764 23.9699 11.728L23.7899 11.722C23.8319 11.632 23.8629 11.572 23.8729 11.562C23.8949 11.544 23.9129 11.468 23.9149 11.394C23.9149 11.354 23.9329 11.22 23.9609 11.044C24.2369 11.054 24.6009 11.062 25.0009 11.064C26.5369 11.077 28.1449 11.201 29.2479 11.396C29.9049 11.512 30.1219 11.508 29.6379 11.39C29.1459 11.27 27.6899 11.096 26.5299 11.02C25.6793 10.9688 24.8271 10.9482 23.9749 10.958C23.9949 10.844 24.0149 10.718 24.0389 10.588C24.1309 10.084 24.1619 9.57805 24.1639 8.57105C24.1659 7.01105 24.0819 6.58105 23.5739 5.54705C23.382 5.14867 23.1383 4.77745 22.8489 4.44305C23.0959 3.71305 23.0889 2.58505 22.8339 1.59505C22.6239 0.783047 22.5489 0.731047 21.8139 0.887047C21.1889 1.02005 20.6889 1.20105 20.0479 1.52405C19.7439 1.67705 19.3259 1.91405 19.0229 2.10205C18.2329 1.82505 17.4159 1.64205 16.5429 1.54205C15.6599 1.44205 13.4929 1.49805 12.7229 1.64005C11.9729 1.78005 11.2949 1.95005 10.6829 2.15005C10.3759 1.96205 9.93295 1.70705 9.61495 1.54705C8.97095 1.22305 8.47095 1.04305 7.84495 0.910047C7.11095 0.753047 7.03495 0.806047 6.82495 1.61805C6.56495 2.62105 6.56295 3.76805 6.81995 4.49605C6.84995 4.57905 6.86795 4.63805 6.87495 4.68405C5.83295 5.99605 5.49295 7.46405 5.71895 9.51405C5.77895 10.047 5.86895 10.537 5.99695 10.986C5.33195 10.982 4.38695 11.006 3.70295 11.05C2.54095 11.127 1.08495 11.3 0.592947 11.42C0.109947 11.537 0.324947 11.54 0.982947 11.426C2.08595 11.232 3.69495 11.106 5.23095 11.096C5.52095 11.094 5.79095 11.088 6.02495 11.082C6.09495 11.319 6.17495 11.545 6.26495 11.76H6.25995C5.24495 11.796 3.99595 11.93 2.79495 12.13C1.89495 12.282 0.564947 12.584 0.408947 12.67C0.244947 12.762 0.378947 12.742 1.07595 12.565C2.34895 12.243 4.00395 11.995 6.05395 11.825L6.28395 11.805C6.72395 12.825 7.40095 13.605 8.35895 14.215C8.94495 14.587 9.88395 14.97 10.3569 15.03C10.4869 15.046 10.8649 15.124 11.1969 15.202C11.5299 15.28 12.1809 15.397 12.6429 15.464H12.6529L12.6289 15.48C12.0689 15.77 11.7049 16.224 11.4589 16.937C11.3489 16.97 11.2129 17.015 11.0649 17.067C10.5349 17.247 10.3299 17.283 9.79495 17.287C9.23795 17.291 9.10495 17.267 8.77495 17.111C8.26322 16.8594 7.8348 16.4657 7.54095 15.977C7.04095 15.151 6.17395 14.567 5.45095 14.567C4.83495 14.567 4.71795 14.817 5.16395 15.182C5.83595 15.732 6.33795 16.292 6.54395 16.72L6.94095 17.544C7.05095 17.771 7.28295 18.079 7.50495 18.292C8.02695 18.79 8.53095 19.028 9.28295 19.14C9.78695 19.214 9.91095 19.214 10.5059 19.138C10.7929 19.103 11.0359 19.062 11.2519 19.011V19.865C11.2519 21.631 11.2319 22.199 11.1619 22.365C11.0289 22.681 10.7319 23.005 10.4449 23.152C10.1579 23.299 10.0689 23.46 10.1899 23.608C10.2579 23.688 10.3869 23.702 10.8199 23.674C11.6419 23.624 12.2229 23.319 12.5199 22.784C12.6139 22.611 12.6359 22.264 12.6659 20.464C12.6979 18.512 12.7119 18.324 12.8389 18.044C12.9149 17.879 13.0259 17.699 13.0889 17.65C13.1919 17.564 13.1989 17.734 13.1989 20.07C13.1989 22.648 13.1719 22.96 12.9139 23.455C12.8559 23.568 12.7459 23.715 12.6689 23.785C12.5339 23.908 12.4769 24.223 12.5709 24.318C12.7259 24.472 13.5029 24.23 13.9269 23.896C14.6489 23.324 14.7349 22.851 14.7409 19.436L14.7439 17.431L14.9639 17.451L15.1819 17.471L15.2179 20.091C15.2579 23.043 15.2639 23.086 15.7659 23.656C16.0509 23.978 16.3379 24.156 16.8059 24.296C17.4299 24.483 17.6179 24.193 17.1979 23.69C16.7409 23.142 16.7179 22.933 16.7439 19.695C16.7609 17.619 16.7609 17.619 16.8939 17.74C17.1769 17.996 17.2309 18.416 17.2309 20.363C17.2309 22.781 17.3009 23.011 18.1539 23.433C18.5539 23.628 18.6639 23.653 19.1759 23.653C19.7199 23.656 19.7529 23.648 19.7729 23.506C19.7899 23.391 19.7229 23.313 19.4689 23.158C19.1554 22.9729 18.9078 22.6942 18.7609 22.361C18.7059 22.235 18.6689 21.403 18.6439 19.691C18.6079 17.297 18.5999 17.188 18.4509 16.813C18.2509 16.309 17.9429 15.911 17.5539 15.647C17.4539 15.581 17.3519 15.527 17.2209 15.485C17.3809 15.469 17.5379 15.452 17.6889 15.43C19.2609 15.22 20.0919 15.046 20.7589 14.788C22.1689 14.245 23.1239 13.343 23.6409 12.064C23.6869 11.95 23.7329 11.842 23.7709 11.754L24.1709 11.788C26.2209 11.961 27.8759 12.208 29.1489 12.531C29.8469 12.709 29.9789 12.731 29.8169 12.637C29.6649 12.552 28.3349 12.251 27.4349 12.1H27.4359ZM21.4219 12.068C21.1889 12.58 20.5389 13.238 20.0139 13.496C19.4959 13.752 18.6839 13.946 17.7639 14.04C17.1339 14.104 13.6269 14.123 13.0479 14.066C11.1309 13.878 10.0579 13.509 9.26495 12.77C8.51495 12.068 8.16495 11.115 8.22495 9.94205C8.26495 9.20805 8.44195 8.74705 8.90495 8.18705C9.32495 7.67705 9.76895 7.36205 10.2909 7.20205C10.7289 7.06805 12.0709 7.05605 13.8729 7.17205C14.6699 7.22205 15.3289 7.22205 16.1249 7.17205C18.0109 7.05205 19.2699 7.06605 19.7349 7.21005C20.4649 7.43605 21.1319 8.04405 21.5319 8.85405C21.7119 9.21605 21.7479 9.37005 21.7739 9.92905C21.8099 10.699 21.6769 11.516 21.4239 12.067L21.4219 12.068ZM11.9119 8.76205C10.8389 8.57405 10.2259 10.412 11.0489 11.349C11.4389 11.793 11.7859 11.866 12.2189 11.596C12.6219 11.346 12.8389 10.876 12.8389 10.268C12.8389 9.45605 12.4709 8.86005 11.9109 8.76005L11.9119 8.76205ZM18.4249 8.87205C17.3519 8.68405 16.7379 10.519 17.5609 11.458C17.9539 11.903 18.3009 11.978 18.7349 11.705C19.1349 11.455 19.3549 10.985 19.3549 10.377C19.3549 9.56905 18.9849 8.97105 18.4249 8.87205ZM15.5389 12.484C15.5149 12.558 15.4029 12.668 15.2889 12.727C15.0039 12.874 14.7989 12.823 14.4959 12.547C14.3089 12.379 14.2239 12.29 14.1659 12.467C14.1139 12.631 14.4459 12.96 14.7039 13.061C14.9399 13.156 15.1089 13.159 15.3639 13.051C15.6189 12.946 15.8409 12.661 15.8409 12.476C15.8409 12.304 15.5939 12.312 15.5379 12.486L15.5389 12.484ZM15.2209 11.909C15.3839 11.764 15.4209 11.469 15.2649 11.311C15.1089 11.153 14.7919 11.178 14.6679 11.354C14.5229 11.56 14.5999 11.717 14.7029 11.884C14.8629 12.008 15.0779 12.034 15.2199 11.908L15.2209 11.909Z" fill="black"/>
</svg>
