<svg width="1024" height="1024" viewBox="0 0 1024 1024" fill="none" xmlns="http://www.w3.org/2000/svg">
<path d="M199.232 125.568L90.624 379.008C88.1117 384.882 87.4153 391.374 88.6243 397.647C89.8334 403.921 92.8926 409.688 97.408 414.208L609.792 926.592C614.312 931.107 620.08 934.167 626.353 935.376C632.626 936.585 639.118 935.888 644.992 933.376L898.432 824.768C903.239 822.71 907.469 819.506 910.751 815.435C914.033 811.365 916.267 806.552 917.259 801.417C918.25 796.283 917.968 790.984 916.438 785.984C914.908 780.984 912.175 776.436 908.48 772.736L769.6 633.92C764.847 629.18 758.723 626.055 752.096 624.987C745.469 623.919 738.674 624.962 732.672 627.968L602.496 693.056L331.008 421.504L396.032 291.328C399.038 285.326 400.081 278.531 399.013 271.904C397.945 265.277 394.82 259.153 390.08 254.4L251.2 115.52C247.5 111.839 242.955 109.119 237.963 107.596C232.97 106.074 227.681 105.797 222.556 106.787C217.432 107.778 212.627 110.008 208.562 113.281C204.496 116.555 201.293 120.773 199.232 125.568V125.568Z" fill="black"/>
</svg>
