<svg width="1024" height="1024" viewBox="0 0 1024 1024" fill="none" xmlns="http://www.w3.org/2000/svg">
<path d="M416 128V96C416 70.5392 426.114 46.1212 444.118 28.1177C462.121 10.1143 486.539 0 512 0L640 0C648.487 0 656.626 3.37142 662.627 9.37258C668.629 15.3737 672 23.5131 672 32C672 40.4869 668.629 48.6263 662.627 54.6274C656.626 60.6286 648.487 64 640 64H512C503.513 64 495.374 67.3714 489.373 73.3726C483.371 79.3737 480 87.5131 480 96V128H800C824.464 127.973 848.015 137.286 865.844 154.037C883.673 170.789 894.433 193.715 895.928 218.133C897.423 242.551 889.54 266.619 873.888 285.421C858.236 304.222 835.996 316.339 811.712 319.296L772.032 900.352C770.93 916.527 763.729 931.682 751.885 942.753C740.041 953.825 724.437 959.989 708.224 960H315.776C299.552 960.005 283.932 953.848 272.074 942.775C260.217 931.702 253.007 916.538 251.904 900.352L212.288 319.296C188.004 316.339 165.764 304.222 150.112 285.421C134.46 266.619 126.577 242.551 128.072 218.133C129.567 193.715 140.328 170.789 158.156 154.037C175.985 137.286 199.536 127.973 224 128H416ZM276.48 320L315.776 896H708.224L713.024 825.216C662.199 812.301 617.514 781.967 586.751 739.499C555.987 697.03 541.094 645.116 544.664 592.798C548.235 540.479 570.043 491.07 606.292 453.175C642.54 415.279 690.932 391.298 743.04 385.408L747.52 320H276.48ZM224 256H800C808.487 256 816.626 252.629 822.627 246.627C828.629 240.626 832 232.487 832 224C832 215.513 828.629 207.374 822.627 201.373C816.626 195.371 808.487 192 800 192H224C215.513 192 207.374 195.371 201.373 201.373C195.371 207.374 192 215.513 192 224C192 232.487 195.371 240.626 201.373 246.627C207.374 252.629 215.513 256 224 256ZM717.44 759.872L738.56 450.752C703.69 457.257 671.97 475.166 648.386 501.663C624.803 528.16 610.693 561.743 608.275 597.132C605.857 632.522 615.268 667.711 635.029 697.169C654.789 726.628 683.778 748.684 717.44 759.872Z" fill="black"/>
</svg>
