<svg width="1024" height="1024" viewBox="0 0 1024 1024" fill="none" xmlns="http://www.w3.org/2000/svg">
<path d="M764.416 254.72C805.124 296.516 834.794 347.784 850.752 403.904H960V595.968H850.752C834.813 652.134 805.142 703.447 764.416 745.28L819.136 840L652.864 936L598.272 841.28C541.665 855.557 482.399 855.557 425.792 841.28L371.136 936L204.864 840L259.584 745.28C218.858 703.447 189.187 652.134 173.248 595.968H64V403.968H173.248C189.187 347.802 218.858 296.489 259.584 254.656L204.8 160L371.008 64H371.2L425.856 158.592C482.463 144.315 541.729 144.315 598.336 158.592L652.8 64H652.928L819.2 160L764.48 254.72H764.416ZM704 499.968C704 449.046 683.772 400.21 647.765 364.203C611.758 328.197 562.922 307.968 512 307.968C461.078 307.968 412.242 328.197 376.236 364.203C340.229 400.21 320 449.046 320 499.968C320 550.89 340.229 599.725 376.236 635.732C412.242 671.739 461.078 691.968 512 691.968C562.922 691.968 611.758 671.739 647.765 635.732C683.772 599.725 704 550.89 704 499.968V499.968Z" fill="black"/>
</svg>
