<svg width="28" height="26" viewBox="0 0 28 26" fill="none" xmlns="http://www.w3.org/2000/svg">
<path d="M9.10795 7.27005C10.191 5.39505 9.26795 2.82805 7.04795 1.54605C6.25443 1.08105 5.35265 0.832761 4.43295 0.82605C2.97295 0.82605 1.71295 1.49805 1.05995 2.62605C0.514951 3.57005 0.451951 4.70305 0.883951 5.81405C1.28695 6.85005 2.07995 7.75005 3.11995 8.35005C3.91336 8.81653 4.8156 9.06588 5.73595 9.07305C6.40895 9.07305 7.03595 8.92305 7.58595 8.65905L9.98595 10.044C11.568 10.958 10.5459 13.9041 15.9039 16.9991C21.2599 20.0941 27.4 18.535 27.4 18.535L8.74995 7.76705C8.88195 7.61105 9.00495 7.44905 9.10795 7.27105V7.27005ZM7.37495 6.27005C6.86895 7.15005 5.34195 7.32605 4.11995 6.61805C3.47395 6.24505 2.98595 5.70205 2.74995 5.09005C2.53995 4.55505 2.55595 4.03505 2.79195 3.62605C3.08495 3.11605 3.68395 2.82605 4.43195 2.82605C4.97495 2.82605 5.53395 2.98205 6.04795 3.27905C7.29095 3.99505 7.89795 5.36505 7.37495 6.26905V6.27005ZM15.245 12.792C15.245 13.275 14.855 13.667 14.371 13.667C14.335 13.667 14.304 13.65 14.268 13.647L14.9349 12.135C15.0318 12.2151 15.1099 12.3154 15.1638 12.4289C15.2177 12.5425 15.2461 12.6664 15.247 12.792H15.245ZM14.371 11.917C14.409 11.917 14.441 11.934 14.476 11.937L13.81 13.4471C13.7127 13.3677 13.6342 13.2678 13.5801 13.1546C13.526 13.0414 13.4976 12.9176 13.497 12.792C13.497 12.309 13.887 11.917 14.371 11.917ZM27.4009 7.46705C27.4009 7.46705 21.261 5.90705 15.905 9.00205C15.368 9.31205 14.91 9.62005 14.49 9.92605L18.815 12.423L27.4 7.46705H27.4009ZM11.1709 14.097C10.8209 14.947 10.597 15.6051 9.98495 15.9571L7.58495 17.342C7.00749 17.066 6.37498 16.9245 5.73495 16.928C4.84195 16.928 3.93795 17.1781 3.11995 17.6481C0.899951 18.9311 -0.0240492 21.5 1.05995 23.375C1.70995 24.502 2.96995 25.175 4.43195 25.175C5.32595 25.175 6.23195 24.925 7.04795 24.455C8.08795 23.853 8.88095 22.953 9.28395 21.918C9.71595 20.806 9.65195 19.6731 9.10595 18.7281C9.00209 18.5535 8.88295 18.3885 8.74995 18.2351L12.732 15.935C12.1375 15.3896 11.6135 14.7722 11.172 14.097H11.1709ZM7.42095 21.192C7.18295 21.804 6.69595 22.347 6.05095 22.72C4.82895 23.426 3.30095 23.252 2.79295 22.373C2.27095 21.47 2.87895 20.0991 4.12095 19.3811C4.61054 19.0919 5.16737 18.936 5.73595 18.9291C6.48595 18.9291 7.08195 19.219 7.37595 19.729C7.61295 20.139 7.62895 20.6591 7.42095 21.1931V21.192Z" fill="black"/>
</svg>
