<svg width="1024" height="1024" viewBox="0 0 1024 1024" fill="none" xmlns="http://www.w3.org/2000/svg">
<path d="M320 768C320 759.513 323.371 751.374 329.373 745.373C335.374 739.371 343.513 736 352 736C360.487 736 368.626 739.371 374.627 745.373C380.629 751.374 384 759.513 384 768C384 784.974 390.743 801.252 402.745 813.255C414.748 825.257 431.026 832 448 832C464.974 832 481.252 825.257 493.255 813.255C505.257 801.252 512 784.974 512 768V512H64C64 393.183 111.2 279.232 195.216 195.216C279.232 111.2 393.183 64 512 64C630.817 64 744.768 111.2 828.784 195.216C912.8 279.232 960 393.183 960 512H576V768C576 801.948 562.514 834.505 538.51 858.51C514.505 882.514 481.948 896 448 896C414.052 896 381.495 882.514 357.49 858.51C333.486 834.505 320 801.948 320 768ZM890.688 448C875.476 358.577 829.11 277.421 759.8 218.906C690.49 160.39 602.708 128.29 512 128.29C421.292 128.29 333.51 160.39 264.2 218.906C194.89 277.421 148.524 358.577 133.312 448H890.688Z" fill="black"/>
</svg>
